<svg xmlns="http://www.w3.org/2000/svg" width="22" height="22" fill="none"><path stroke="#000" stroke-width="1.5" d="M3 21.25h16M3 .75h11M2.75 17v4M2.75 1v2"/><path stroke="#000" d="m3.322.354-.968.968"/><path fill="#000" fill-rule="evenodd" d="m17 3-3-3-1.06 1.06L14.878 3H17Zm-1 1h-.121l.06.06L16 4Z" clip-rule="evenodd"/><path stroke="#000" stroke-width="1.5" d="M19.25 17v4"/><path stroke="#000" d="m1.322 4.354-.968.968M2.354 20.646l1 1M.354 16.646l1 1M18.646 21.646l1-1M20.646 17.646l1-1M21.615 5.322l-.969-.968"/><path stroke="#000" stroke-width="1.5" d="M.75 5v12M21.25 5v12M1 4.75h20M1 17.25h20"/><path fill="#000" d="M2.5 15.5h1.135v-3.573H5.1c1.965 0 3.308-.884 3.308-2.775C8.408 7.175 7.053 6.5 5.05 6.5H2.5v9Zm1.135-4.494V7.433h1.27c1.586 0 2.38.405 2.38 1.72 0 1.276-.757 1.853-2.32 1.853h-1.33ZM10.224 15.5h1.135v-9h-1.135v9ZM15.655 15.5h1.147V7.458H19.5V6.5h-6.542v.958h2.697V15.5Z"/></svg>
